<svg width="120" height="120" viewBox="0 0 120 120" fill="none" xmlns="http://www.w3.org/2000/svg">
  <!-- 背景圆形 -->
  <circle cx="60" cy="60" r="58" fill="url(#gradient)" stroke="#E5E7EB" stroke-width="4"/>
  
  <!-- 渐变定义 -->
  <defs>
    <linearGradient id="gradient" x1="0%" y1="0%" x2="100%" y2="100%">
      <stop offset="0%" style="stop-color:#3B82F6;stop-opacity:1" />
      <stop offset="100%" style="stop-color:#8B5CF6;stop-opacity:1" />
    </linearGradient>
    <linearGradient id="pencilGradient" x1="0%" y1="0%" x2="100%" y2="100%">
      <stop offset="0%" style="stop-color:#F59E0B;stop-opacity:1" />
      <stop offset="100%" style="stop-color:#EF4444;stop-opacity:1" />
    </linearGradient>
  </defs>
  
  <!-- 画笔/铅笔 -->
  <g transform="translate(25, 25) rotate(-45 35 35)">
    <!-- 笔身 -->
    <rect x="30" y="10" width="10" height="50" fill="url(#pencilGradient)" rx="2"/>
    <!-- 笔尖 -->
    <polygon points="30,60 35,70 40,60" fill="#374151"/>
    <!-- 笔头装饰 -->
    <rect x="28" y="8" width="14" height="4" fill="#F3F4F6" rx="2"/>
    <!-- 橡皮擦 -->
    <rect x="29" y="4" width="12" height="6" fill="#EC4899" rx="3"/>
  </g>
  
  <!-- 简笔画元素 - 小房子 -->
  <g transform="translate(55, 35)">
    <!-- 房子主体 -->
    <rect x="0" y="15" width="25" height="20" fill="none" stroke="white" stroke-width="2" stroke-linecap="round"/>
    <!-- 屋顶 -->
    <polygon points="-2,15 12.5,5 27,15" fill="none" stroke="white" stroke-width="2" stroke-linecap="round" stroke-linejoin="round"/>
    <!-- 门 -->
    <rect x="8" y="25" width="6" height="10" fill="none" stroke="white" stroke-width="2" stroke-linecap="round"/>
    <!-- 窗户 -->
    <rect x="16" y="20" width="5" height="5" fill="none" stroke="white" stroke-width="2" stroke-linecap="round"/>
    <!-- 门把手 -->
    <circle cx="12" cy="30" r="1" fill="white"/>
  </g>
  
  <!-- 简笔画元素 - 太阳 -->
  <g transform="translate(75, 15)">
    <circle cx="0" cy="0" r="6" fill="none" stroke="white" stroke-width="2"/>
    <!-- 太阳光线 -->
    <g stroke="white" stroke-width="2" stroke-linecap="round">
      <line x1="0" y1="-12" x2="0" y2="-10"/>
      <line x1="8.5" y1="-8.5" x2="7" y2="-7"/>
      <line x1="12" y1="0" x2="10" y2="0"/>
      <line x1="8.5" y1="8.5" x2="7" y2="7"/>
      <line x1="0" y1="12" x2="0" y2="10"/>
      <line x1="-8.5" y1="8.5" x2="-7" y2="7"/>
      <line x1="-12" y1="0" x2="-10" y2="0"/>
      <line x1="-8.5" y1="-8.5" x2="-7" y2="-7"/>
    </g>
  </g>
  
  <!-- 简笔画元素 - 小花 -->
  <g transform="translate(20, 75)">
    <!-- 花瓣 -->
    <circle cx="-3" cy="-3" r="3" fill="none" stroke="white" stroke-width="2"/>
    <circle cx="3" cy="-3" r="3" fill="none" stroke="white" stroke-width="2"/>
    <circle cx="3" cy="3" r="3" fill="none" stroke="white" stroke-width="2"/>
    <circle cx="-3" cy="3" r="3" fill="none" stroke="white" stroke-width="2"/>
    <!-- 花心 -->
    <circle cx="0" cy="0" r="2" fill="white"/>
    <!-- 花茎 -->
    <line x1="0" y1="6" x2="0" y2="15" stroke="white" stroke-width="2" stroke-linecap="round"/>
  </g>
  
  <!-- 装饰性星星 -->
  <g fill="white" opacity="0.8">
    <polygon points="90,25 91,27 93,27 91.5,28.5 92,30.5 90,29 88,30.5 88.5,28.5 87,27 89,27" />
    <polygon points="25,50 26,52 28,52 26.5,53.5 27,55.5 25,54 23,55.5 23.5,53.5 22,52 24,52" />
    <polygon points="95,70 96,72 98,72 96.5,73.5 97,75.5 95,74 93,75.5 93.5,73.5 92,72 94,72" />
  </g>
</svg>